<?xml version="1.0" encoding="UTF-8" standalone="no"?>
<!--Created with ArtCAM (http://www.artcam.com/) -->
<svg height="54.612343mm" width="218.449371mm" viewBox="0 0 218.449371 54.612343">
<path d="M10.197739,31.675159 L26.038104,31.675159 L20.144987,51.564431 L4.336664,51.564431 L10.197739,31.675159 
" style="fill:none;stroke:#000000;stroke-width:0.136531"/>
<path d="M179.286787,10.951574 L189.270605,10.951574 L182.797580,44.907530 L179.286787,44.907530 L179.286787,10.951574 
" style="fill:none;stroke:#000000;stroke-width:0.136531"/>
<path d="M179.881062,12.140124 L188.063770,12.140124 L181.627316,43.746408 L179.881062,43.746408 L179.881062,12.140124 
" style="fill:none;stroke:#000000;stroke-width:0.136531"/>
<path d="M89.794009,29.334630 L103.800612,29.334630 L103.800612,31.055011 L109.122758,31.055011 L109.122758,31.656873 L110.831342,31.656873 L110.831342,32.251148 L111.434759,32.251148 L111.434759,33.412270 L112.029034,33.412270 L112.029034,47.455444 L111.424994,47.455444 L111.424994,48.653136 L110.858770,48.653136 L110.858770,49.219983 L82.748912,49.219983 L82.748912,48.633545 L82.158556,48.633545 L82.158556,47.478954 L81.578648,47.478954 L81.578648,33.430555 L82.158556,33.430555 L82.158556,32.249842 L82.754137,32.249842 L82.754137,31.685608 L85.105115,31.685608 L85.105115,31.069129 L89.794009,31.069129 L89.794009,29.334630 
" style="fill:none;stroke:#000000;stroke-width:0.136531"/>
<path d="M55.825863,16.662860 C56.146342,15.657629 57.060297,14.959382 58.114421,14.914439 C59.168544,14.869495 60.138614,15.487416 60.543492,16.461720 C60.729841,17.161811 61.333434,17.671108 62.054898,17.737007 C62.776362,17.802907 63.462236,17.411391 63.772337,16.756646 L64.578789,16.716417 C64.230503,17.712355 63.297499,18.384937 62.242534,18.400573 C61.187569,18.416209 60.235043,17.771573 59.857393,16.786395 C59.644683,16.112501 59.041097,15.637538 58.336080,15.589272 C57.631063,15.541005 56.968378,15.929276 56.665811,16.567894 L55.825863,16.662860 
" style="fill:none;stroke:#000000;stroke-width:0.136531"/>
<path d="M65.940728,22.879890 L65.940728,22.313043 L74.708568,22.313043 L74.708568,22.879890 L65.940728,22.879890 
" style="fill:none;stroke:#000000;stroke-width:0.136531"/>
<path d="M65.940728,25.814694 L65.940728,24.644429 L68.253828,24.644429 L68.253828,25.814694 L65.940728,25.814694 
" style="fill:none;stroke:#000000;stroke-width:0.136531"/>
<path d="M69.451521,25.805551 L69.451521,24.653572 L71.782907,24.653572 L71.782907,25.805551 L69.451521,25.805551 
" style="fill:none;stroke:#000000;stroke-width:0.136531"/>
<path d="M72.962267,25.814694 L72.962267,24.662715 L74.726901,24.662715 L74.726901,25.814694 L72.962267,25.814694 
" style="fill:none;stroke:#000000;stroke-width:0.136531"/>
<path d="M54.110167,26.942659 L75.388009,13.071933 C75.200260,12.989558 74.997463,12.947026 74.792437,12.947026 L55.561091,12.947026 C54.742420,12.947026 54.078756,13.610690 54.078756,14.429361 L54.078756,26.639121 C54.078756,26.741111 54.089282,26.842830 54.110167,26.942659 
" style="fill:none;stroke:#000000;stroke-width:0.136531"/>
<path d="M54.898115,27.964933 L76.207292,13.987202 C76.252020,14.130327 76.274772,14.279410 76.274772,14.429361 L76.274772,26.639121 C76.274772,27.032260 76.118598,27.409298 75.840607,27.687290 C75.562615,27.965281 75.185577,28.121456 74.792437,28.121456 L55.561091,28.121456 C55.330945,28.121456 55.103960,28.067867 54.898115,27.964933 
" style="fill:none;stroke:#000000;stroke-width:0.136531"/>
<path d="M54.935975,25.311846 L72.660606,13.804245 L55.561091,13.804245 C55.395300,13.804245 55.236299,13.870105 55.119067,13.987337 C55.001835,14.104569 54.935975,14.263570 54.935975,14.429361 L54.935975,25.311846 
" style="fill:none;stroke:#000000;stroke-width:0.136531"/>
<path d="M137.787428,24.503710 C137.466949,25.508940 136.552994,26.207187 135.498871,26.252131 C134.444748,26.297074 133.474677,25.679153 133.069799,24.704849 C132.883451,24.004758 132.279858,23.495461 131.558394,23.429562 C130.836929,23.363663 130.151055,23.755178 129.840955,24.409923 L129.034502,24.450152 C129.382789,23.454214 130.315792,22.781632 131.370757,22.765996 C132.425722,22.750360 133.378249,23.394996 133.755898,24.380175 C133.968608,25.054068 134.572194,25.529031 135.277212,25.577297 C135.982229,25.625564 136.644913,25.237293 136.947480,24.598676 L137.787428,24.503710 
" style="fill:none;stroke:#000000;stroke-width:0.136531"/>
<path d="M127.672564,18.286680 L127.672564,18.853526 L118.904723,18.853526 L118.904723,18.286680 L127.672564,18.286680 
" style="fill:none;stroke:#000000;stroke-width:0.136531"/>
<path d="M127.672564,15.351876 L127.672564,16.522140 L125.359463,16.522140 L125.359463,15.351876 L127.672564,15.351876 
" style="fill:none;stroke:#000000;stroke-width:0.136531"/>
<path d="M124.161770,15.361018 L124.161770,16.512997 L121.830384,16.512997 L121.830384,15.361018 L124.161770,15.361018 
" style="fill:none;stroke:#000000;stroke-width:0.136531"/>
<path d="M120.651024,15.351876 L120.651024,16.503855 L118.886390,16.503855 L118.886390,15.351876 L120.651024,15.351876 
" style="fill:none;stroke:#000000;stroke-width:0.136531"/>
<path d="M139.503125,14.223910 L118.225282,28.094636 C118.413032,28.177011 118.615828,28.219543 118.820854,28.219543 L138.052200,28.219543 C138.870871,28.219543 139.534535,27.555879 139.534535,26.737208 L139.534535,14.527449 C139.534535,14.425458 139.524009,14.323739 139.503125,14.223910 
" style="fill:none;stroke:#000000;stroke-width:0.136531"/>
<path d="M138.715176,13.201636 L117.406000,27.179367 C117.361272,27.036243 117.338519,26.887159 117.338519,26.737208 L117.338519,14.527449 C117.338519,14.134309 117.494693,13.757271 117.772685,13.479280 C118.050677,13.201288 118.427714,13.045114 118.820854,13.045114 L138.052200,13.045114 C138.282347,13.045114 138.509332,13.098703 138.715176,13.201636 
" style="fill:none;stroke:#000000;stroke-width:0.136531"/>
<path d="M138.677317,15.854724 L120.952686,27.362324 L138.052200,27.362324 C138.217992,27.362324 138.376992,27.296464 138.494224,27.179232 C138.611456,27.062000 138.677317,26.902999 138.677317,26.737208 L138.677317,15.854724 
" style="fill:none;stroke:#000000;stroke-width:0.136531"/>
<path d="M89.843758,33.356873 L89.818883,33.357144 L89.794009,33.357414 L89.263733,33.357414 L86.667584,33.357414 C86.304548,33.696707 85.840935,33.908608 85.346809,33.961093 C85.025457,33.982387 84.703203,33.986659 84.381399,33.973893 C84.292545,34.337403 84.115897,34.673576 83.866933,34.952953 L83.866933,45.956556 C84.114989,46.234914 84.291269,46.569670 84.380438,46.931698 L109.197453,46.931698 C109.287451,46.548926 109.474566,46.195804 109.740749,45.906390 L109.740749,34.950639 C109.481839,34.665533 109.299074,34.319693 109.209388,33.945158 C108.607390,33.964622 108.021503,33.748727 107.576075,33.343296 L104.404030,33.343296 L89.263733,33.357414 
" style="fill:none;stroke:#000000;stroke-width:0.136531"/>
<path d="M63.138493,32.923136 L65.273372,30.788256 L67.408129,32.923136 L65.809682,32.923136 L65.809682,42.792671 L23.655780,42.792671 L23.655751,41.598026 L64.590657,41.598026 L64.590657,32.923136 L63.138493,32.923136 
" style="fill:none;stroke:#000000;stroke-width:0.136531"/>
<path d="M49.391847,19.997406 L51.119924,21.725484 L49.391847,23.453344 L49.391847,22.317724 L28.921970,22.317724 L28.921970,21.133026 L49.391847,21.133026 L49.391847,19.997406 
" style="fill:none;stroke:#000000;stroke-width:0.136531"/>
<path d="M93.085196,25.228255 L95.151717,27.294777 L97.218056,25.228255 L96.222627,25.228255 L96.222627,21.699193 L77.487250,21.699193 L77.487250,23.487487 L94.456782,23.487487 L94.456782,25.228255 L93.085196,25.228255 
" style="fill:none;stroke:#000000;stroke-width:0.136531"/>
<path d="M160.851006,10.561637 L163.612288,13.322919 L166.373191,10.561637 L164.684841,10.561637 L164.684841,3.564431 L40.636806,3.564431 L40.636806,18.802249 L28.909780,18.802249 L28.895330,20.583361 L41.813165,20.583361 L41.813165,5.368588 L162.868493,5.368588 L162.868493,10.561637 L160.851006,10.561637 
" style="fill:none;stroke:#000000;stroke-width:0.136531"/>
<path d="M153.555138,19.213671 L156.198016,21.856549 L153.555138,24.499285 L153.555138,22.294757 L140.078811,22.294757 L140.078811,21.142778 L153.555138,21.142778 L153.555138,19.213671 
" style="fill:none;stroke:#000000;stroke-width:0.136531"/>
<path d="M10.230989,38.655275 L13.936390,38.655275 L15.511096,33.567696 L11.785438,33.567696 L10.230989,38.655275 
" style="fill:none;stroke:#000000;stroke-width:0.136531"/>
<path d="M14.242121,38.654666 L17.947522,38.654666 L19.522228,33.567086 L15.796570,33.567086 L14.242121,38.654666 
" style="fill:none;stroke:#000000;stroke-width:0.136531"/>
<path d="M8.596465,44.096396 L12.301866,44.096396 L13.876572,39.008816 L10.150914,39.008816 L8.596465,44.096396 
" style="fill:none;stroke:#000000;stroke-width:0.136531"/>
<path d="M6.957178,49.499813 L10.662578,49.499813 L12.237285,44.412234 L8.511626,44.412234 L6.957178,49.499813 
" style="fill:none;stroke:#000000;stroke-width:0.136531"/>
<path d="M18.231750,38.654666 L21.937150,38.654666 L23.511857,33.567086 L19.786198,33.567086 L18.231750,38.654666 
" style="fill:none;stroke:#000000;stroke-width:0.136531"/>
<path d="M12.577454,44.087340 L16.282855,44.087340 L17.857561,38.999761 L14.131903,38.999761 L12.577454,44.087340 
" style="fill:none;stroke:#000000;stroke-width:0.136531"/>
<path d="M10.938167,49.490758 L14.643567,49.490758 L16.218274,44.403178 L12.492615,44.403178 L10.938167,49.490758 
" style="fill:none;stroke:#000000;stroke-width:0.136531"/>
<path d="M16.600238,44.076891 L20.305639,44.076891 L21.880345,38.989312 L18.154687,38.989312 L16.600238,44.076891 
" style="fill:none;stroke:#000000;stroke-width:0.136531"/>
<path d="M14.960951,49.480309 L18.666351,49.480309 L20.241058,44.392729 L16.515400,44.392729 L14.960951,49.480309 
" style="fill:none;stroke:#000000;stroke-width:0.136531"/>
<path d="M5.510323,50.686732 L19.489630,50.686732 L24.862630,32.552857 L10.854108,32.552857 L5.510323,50.686732 
" style="fill:none;stroke:#000000;stroke-width:0.136531"/>
<path d="M158.595516,28.612373 C160.442440,26.516731 161.492323,23.837581 161.560930,21.045067 L166.988663,21.043595 C167.049321,23.837804 168.101760,26.519364 169.957845,28.608917 C170.302494,29.380836 170.494277,30.236699 170.494556,31.137594 C170.495487,34.571161 167.712785,37.355372 164.279218,37.356303 C160.845651,37.357234 158.061441,34.574532 158.060510,31.140965 C158.060266,30.241371 158.251102,29.386351 158.596188,28.611611 
" style="fill:none;stroke:#000000;stroke-width:0.136531"/>
<path d="M158.171937,28.429117 C159.986349,26.384520 161.022737,23.766235 161.099232,21.033723 C161.105387,20.783201 161.310207,20.583298 161.560804,20.583230 L166.988538,20.581759 C167.239746,20.581690 167.444938,20.782423 167.450391,21.033572 C167.508670,23.718202 168.519836,26.294601 170.303132,28.302209 C170.335839,28.339030 170.362446,28.380846 170.381944,28.426071 C171.239105,30.354462 171.134566,32.574501 170.099988,34.413811 C169.065410,36.253122 167.222488,37.495353 165.129381,37.764274 C162.736396,38.071742 160.363558,37.064988 158.921796,35.130502 C157.480034,33.196016 157.193401,30.634425 158.171937,28.429117 
" style="fill:none;stroke:#000000;stroke-width:0.136531"/>
<path d="M167.067593,19.803319 C167.055905,19.634509 165.800635,19.583914 164.263868,19.690312 C162.727100,19.796709 161.490779,20.019809 161.502466,20.188618 C161.514154,20.357428 162.769424,20.408023 164.306192,20.301625 C165.842959,20.195228 167.079280,19.972128 167.067593,19.803319 
" style="fill:none;stroke:#000000;stroke-width:0.136531"/>
<path d="M167.077947,19.037656 C167.066259,18.868847 165.810989,18.818252 164.274222,18.924649 C162.737454,19.031047 161.501133,19.254146 161.512820,19.422956 C161.524508,19.591765 162.779778,19.642360 164.316546,19.535963 C165.853313,19.429565 167.089634,19.206466 167.077947,19.037656 
" style="fill:none;stroke:#000000;stroke-width:0.136531"/>
<path d="M167.019733,18.242165 C167.008046,18.073355 165.752775,18.022760 164.216008,18.129158 C162.679240,18.235555 161.442919,18.458655 161.454606,18.627464 C161.466294,18.796274 162.721565,18.846869 164.258332,18.740471 C165.795099,18.634074 167.031420,18.410974 167.019733,18.242165 
" style="fill:none;stroke:#000000;stroke-width:0.136531"/>
<path d="M168.068851,34.395957 C168.164947,34.284416 168.333271,34.271896 168.444813,34.367993 C168.556354,34.464090 168.568874,34.632414 168.472777,34.743955 C168.321776,34.919512 168.159881,35.085398 167.988051,35.240628 C167.428911,35.747489 166.771724,36.134241 166.057139,36.376962 C165.922461,36.437307 165.764363,36.377048 165.704018,36.242369 C165.643673,36.107691 165.703932,35.949594 165.838610,35.889249 C167.005464,35.471605 167.178973,35.426938 168.068851,34.395957 
" style="fill:none;stroke:#000000;stroke-width:0.136531"/>
<path d="M165.649433,17.687192 C165.649226,16.923586 165.030033,16.304728 164.266426,16.304935 C163.502820,16.305143 162.883963,16.924335 162.884170,17.687942 L165.649433,17.687192 
" style="fill:none;stroke:#000000;stroke-width:0.136531"/>
<path d="M171.288655,38.167074 C171.401822,38.292876 171.391580,38.486600 171.265778,38.599768 C171.139975,38.712936 170.946251,38.702694 170.833083,38.576891 L169.484268,37.077487 C169.371100,36.951685 169.381342,36.757961 169.507145,36.644793 C169.632947,36.531625 169.826671,36.541867 169.939839,36.667670 L171.288655,38.167074 
" style="fill:none;stroke:#000000;stroke-width:0.136531"/>
<path d="M173.476436,34.228314 C173.623994,34.311137 173.676473,34.497898 173.593650,34.645457 C173.510827,34.793016 173.324066,34.845495 173.176507,34.762672 L171.417796,33.775529 C171.270237,33.692706 171.217758,33.505945 171.300581,33.358386 C171.383404,33.210828 171.570165,33.158349 171.717724,33.241172 L173.476436,34.228314 
" style="fill:none;stroke:#000000;stroke-width:0.136531"/>
<path d="M167.274238,40.563961 C167.330411,40.723578 167.246553,40.898511 167.086936,40.954685 C166.927318,41.010859 166.752385,40.927001 166.696211,40.767383 L166.026694,38.864947 C165.970520,38.705330 166.054378,38.530396 166.213996,38.474223 C166.373613,38.418049 166.548547,38.501907 166.604720,38.661525 L167.274238,40.563961 
" style="fill:none;stroke:#000000;stroke-width:0.136531"/>
<path d="M157.177517,38.317533 C157.064417,38.443397 157.074764,38.637115 157.200628,38.750215 C157.326492,38.863314 157.520210,38.852967 157.633310,38.727103 L158.981313,37.226968 C159.094412,37.101104 159.084065,36.907386 158.958201,36.794286 C158.832337,36.681187 158.638619,36.691534 158.525519,36.817398 L157.177517,38.317533 
" style="fill:none;stroke:#000000;stroke-width:0.136531"/>
<path d="M154.987600,34.379960 C154.840086,34.462863 154.787709,34.649652 154.870612,34.797166 C154.953515,34.944680 155.140304,34.997058 155.287818,34.914155 L157.045994,33.926059 C157.193508,33.843156 157.245886,33.656366 157.162983,33.508853 C157.080080,33.361339 156.893290,33.308961 156.745776,33.391864 L154.987600,34.379960 
" style="fill:none;stroke:#000000;stroke-width:0.136531"/>
<path d="M161.193233,40.712243 C161.137146,40.871891 161.221098,41.046778 161.380746,41.102865 C161.540394,41.158952 161.715282,41.075000 161.771369,40.915352 L162.439855,39.012553 C162.495942,38.852905 162.411989,38.678017 162.252341,38.621930 C162.092693,38.565843 161.917805,38.649796 161.861718,38.809444 L161.193233,40.712243 
" style="fill:none;stroke:#000000;stroke-width:0.136531"/>
<path d="M13.245762,19.505172 L10.116204,17.667093 L16.375321,17.667093 L13.245762,19.505172 
" style="fill:none;stroke:#000000;stroke-width:0.136531"/>
<path d="M12.498410,19.944114 L9.832382,18.378279 L9.395764,21.776479 A0.740420,0.740420 0 0,1 9.488953,21.711655 L12.498410,19.944114 
" style="fill:none;stroke:#000000;stroke-width:0.136531"/>
<path d="M8.901939,25.619927 L12.283005,24.182835 L9.574298,23.031523 A0.740420,0.740420 0 0,1 9.265961,22.786741 L8.901939,25.619927 
" style="fill:none;stroke:#000000;stroke-width:0.136531"/>
<path d="M13.229416,23.780571 L16.594902,22.350101 L13.229416,20.373455 L9.863931,22.350101 L13.229416,23.780571 
" style="fill:none;stroke:#000000;stroke-width:0.136531"/>
<path d="M13.976768,19.934513 L16.625322,18.378941 L17.058689,21.751841 A0.756977,0.756977 0 0,0 16.978265,21.697378 L13.976768,19.934513 
" style="fill:none;stroke:#000000;stroke-width:0.136531"/>
<path d="M14.196990,24.191830 L16.891011,23.046760 A0.756977,0.756977 0 0,0 17.194863,22.811686 L17.555610,25.619382 L14.196990,24.191830 
" style="fill:none;stroke:#000000;stroke-width:0.136531"/>
<path d="M13.256983,26.637293 L10.491782,25.766696 L13.250579,24.594094 L16.014826,25.769012 L13.256983,26.637293 
" style="fill:none;stroke:#000000;stroke-width:0.136531"/>
<path d="M8.582114,28.109131 L11.996649,27.034097 L8.847625,26.042657 L8.582114,28.109131 
" style="fill:none;stroke:#000000;stroke-width:0.136531"/>
<path d="M14.489750,27.025418 L17.610041,26.043024 L17.873129,28.090643 L14.489750,27.025418 
" style="fill:none;stroke:#000000;stroke-width:0.136531"/>
<path d="M14.998922,5.720643 L11.458697,5.720643 L11.404731,6.140657 L13.122190,7.798580 L15.022418,5.903511 L14.998922,5.720643 
" style="fill:none;stroke:#000000;stroke-width:0.136531"/>
<path d="M16.089738,16.492927 L13.481998,14.458618 L14.129362,13.953606 L16.056734,13.953606 L16.382998,16.492927 L16.089738,16.492927 
" style="fill:none;stroke:#000000;stroke-width:0.136531"/>
<path d="M10.143819,16.492927 L12.659207,14.459552 L12.010645,13.953606 L10.400885,13.953606 L10.074621,16.492927 L10.143819,16.492927 
" style="fill:none;stroke:#000000;stroke-width:0.136531"/>
<path d="M15.265748,16.492927 L13.070004,14.780017 L10.874259,16.492927 L15.265748,16.492927 
" style="fill:none;stroke:#000000;stroke-width:0.136531"/>
<path d="M12.849765,11.006820 L14.791667,10.157238 L13.121141,8.509440 L11.283851,10.321733 L12.849765,11.006820 
" style="fill:none;stroke:#000000;stroke-width:0.136531"/>
<path d="M3.624470,16.492927 L8.272621,16.492927 L8.588053,14.037914 L3.624470,16.492927 
" style="fill:none;stroke:#000000;stroke-width:0.136531"/>
<path d="M11.206789,12.683717 L10.874259,12.424308 L12.851603,11.559220 L15.110335,12.547415 L14.935613,12.683717 L11.206789,12.683717 
" style="fill:none;stroke:#000000;stroke-width:0.136531"/>
<path d="M23.148383,16.492927 L18.184998,16.492927 L17.867699,14.023386 L23.148383,16.492927 
" style="fill:none;stroke:#000000;stroke-width:0.136531"/>
<path d="M10.911412,9.980169 A0.505349,0.505349 0 0,1 10.928972,9.961958 L12.761333,8.154527 L11.327676,6.740377 L10.911412,9.980169 
" style="fill:none;stroke:#000000;stroke-width:0.136531"/>
<path d="M10.837163,10.558051 L10.656158,11.966814 L10.671115,11.959979 L12.219370,11.282618 L11.081298,10.784712 A0.505349,0.505349 0 0,1 10.837163,10.558051 
" style="fill:none;stroke:#000000;stroke-width:0.136531"/>
<path d="M15.577023,10.220014 L13.481998,8.153493 L15.105721,6.551861 L15.577023,10.220014 
" style="fill:none;stroke:#000000;stroke-width:0.136531"/>
<path d="M15.594885,10.359034 L15.846573,12.317923 L13.481998,11.283422 L15.594885,10.359034 
" style="fill:none;stroke:#000000;stroke-width:0.136531"/>
<path d="M112.601976,23.496009 L99.137840,23.496009 L99.137840,28.170460 L97.967575,28.170460 L97.967575,21.715720 L112.601976,21.715720 
" style="fill:none;stroke:#000000;stroke-width:0.136531"/>
<path d="M112.601976,21.715720 L112.601976,20.383720 L114.824121,22.605865 L112.601976,24.828009 L112.601976,23.496009 
" style="fill:none;stroke:#000000;stroke-width:0.136531"/>
<path d="M112.772640,17.375990 L77.665554,17.375990 L77.670800,18.552349 L112.772640,18.552349 
" style="fill:none;stroke:#000000;stroke-width:0.136531"/>
<path d="M112.772640,17.375990 L112.772640,16.231629 L114.473193,17.932182 L112.772640,19.632711 L112.772640,18.552349 
" style="fill:none;stroke:#000000;stroke-width:0.136531"/>
<path d="M2.491144,17.667093 L2.491144,20.111069 L1.381144,20.111069 L1.380824,17.667093 L1.381144,20.111069 L2.491144,20.111069 L2.491144,17.667093 L5.354192,17.667093 L5.354192,20.111069 L6.464192,20.111069 L6.464192,17.667093 L8.121758,17.667093 L6.465783,30.555569 L8.267783,30.555569 L8.478173,28.918106 L13.229416,27.422223 L17.979395,28.917708 L18.188757,30.547174 L19.990757,30.547174 L18.335861,17.667093 L20.318094,17.667093 L20.318094,20.104243 L21.428094,20.104243 L21.428094,17.667093 L24.291142,17.667093 L24.291142,20.104243 L25.401142,20.104243 L25.401142,17.667093 L25.401336,17.667093 L25.401336,16.492927 L17.707030,12.683717 L16.800922,5.720643 L20.174617,5.720643 L20.174617,8.130487 L21.284617,8.130487 L21.284617,5.720643 L21.292423,5.720643 L21.292423,4.587715 L17.628578,1.570085 L17.623925,1.540685 L9.181298,1.540685 L5.569798,4.558315 L5.574451,5.720643 L5.579468,5.720643 L5.579468,8.123660 L6.689468,8.123660 L6.689468,5.720643 L9.656697,5.720643 L8.762047,12.683717 L8.758507,12.711266 L8.758507,12.683717 L8.760277,12.683717 L1.380824,16.492927 L1.380824,17.667093 L1.381144,17.667093 
" style="fill:none;stroke:#000000;stroke-width:0.136531"/>
<path d="M9.185951,2.527636 L6.844425,4.587715 L20.046959,4.587715 L17.628578,2.527636 L9.185951,2.527636 
" style="fill:none;stroke:#000000;stroke-width:0.136531"/>
</svg>
